<svg xmlns="http://www.w3.org/2000/svg" width="405.1" height="132.5" viewBox="0 0 405.1 132.5"><polygon points="361.3 84.3 366.8 84.3 350.4 64.6 344.8 64.6 342.2 61.5 354.2 50.2 374.2 31.7 345.2 31.7 326.1 50.2 317.9 58.3 317.9 50.2 317.9 31.7 297.1 31.7 297.1 50.2 297.1 64.6 302.7 64.6 302.7 84.3 297.1 84.3 297.1 100.7 317.9 100.7 317.9 84.4 317.9 84.3 323.5 84.3 333 75.4 340.3 84.3 334.8 84.3 348.2 100.7 374.9 100.7 361.3 84.3" fill="#fff"/><path d="M284.4,84.3h-5.3l-.3-.7a15.1,15.1,0,0,0-9.9-7.8,21.4,21.4,0,0,0,13.7-11.3h5.3a18,18,0,0,0,1.6-7.2,32.3,32.3,0,0,0-.7-7.1c-2.5-11.2-11.4-18.6-29.5-18.6H218.2v33h-5.3V84.4h5.3v16.4H238V84.4h15c7.2,0,8.9,4.7,14.1,16.3H292C289.3,94.3,285.5,86.7,284.4,84.3ZM237.9,50.2h20c4.1,0,7.9,3.1,7.9,7.2s-3.8,7.2-7.9,7.2h-20Z" fill="#fff"/><path d="M106.3,84.3H101l-.3-.7a15.1,15.1,0,0,0-9.9-7.8,21.4,21.4,0,0,0,13.7-11.3h5.3a18,18,0,0,0,1.6-7.2,32.3,32.3,0,0,0-.7-7.1C108.2,39,99.3,31.6,81.2,31.6H40.1v33H34.8V84.4h5.3v16.4H59.9V84.4h15c7.2,0,8.9,4.7,14.1,16.3h24.9C111.1,94.3,107.4,86.7,106.3,84.3ZM59.8,50.2h20c4.1,0,7.9,3.1,7.9,7.2s-3.8,7.2-7.9,7.2h-20Z" fill="#fff"/><path d="M179.1,31.7l-8.5,19.2-6.4,14.3h-.5l-6.4-14.3-8.5-19.2H120.7V64.6h-5.3V84.4h5.3v16.4h20V84.4h-5.3V64.6h2.4L147,84.4h5l7.6,16.4h8.3l7.3-15.7h-5.3l9.5-20.4h2.2V84.5h5.3v16.4h20V84.5h-5.3V64.6h5.3V31.7ZM140.8,64.6V59.4l2.4,5.2Zm43.9,0,2.4-5.2v5.2Z" fill="#fff"/><path d="M405.1,64.6V7.9A7.9,7.9,0,0,0,397.2,0H13.1A7.9,7.9,0,0,0,5.2,7.9V64.6H0V84.4H5.2v40.2a7.9,7.9,0,0,0,7.9,7.9H397.2a7.9,7.9,0,0,0,7.9-7.9V84.4h-5.2V64.6Zm-15,19.7v33.1H20.2V84.3H15V64.6h5.2V15H390.1V64.6h-5.2V84.4h5.2Z" fill="#fff"/></svg>